<?xml version="1.0" encoding="utf-8"?>
<!-- Generator: Adobe Illustrator 16.0.4, SVG Export Plug-In . SVG Version: 6.00 Build 0)  -->
<!DOCTYPE svg PUBLIC "-//W3C//DTD SVG 1.1//EN" "http://www.w3.org/Graphics/SVG/1.1/DTD/svg11.dtd">
<svg version="1.1" id="Ebene_1" xmlns="http://www.w3.org/2000/svg" xmlns:xlink="http://www.w3.org/1999/xlink" x="0px" y="0px"
	 width="58px" height="56px" viewBox="0 0 58 56" enable-background="new 0 0 58 56" xml:space="preserve">
<title>logo1Artboard 1</title>
<path fill="#B89667" d="M27.93,51.54c13.15,0.14,26.259-10.36,26-23.35C53.6,16.23,42,3.52,28.29,3.59C14.9,3.66,2.51,16.08,2.7,29
	c0.17,12.561,12.37,22.76,25.23,22.58 M57.2,28.06C57.24,43.32,44,56.67,26.56,55.6C13,54.78-0.27,43.54,0,27.27
	C0.32,12,13.47,0,29.49,0.3C44.76,0.59,57.49,13.3,57.2,28.06"/>
<path fill="#B89667" d="M27.46,34.93l1.06,0.78l1-0.76c-0.176-0.254-0.301-0.539-0.37-0.841c0-0.56-0.1-1.539,0.13-1.629
	c0.8-0.311,1.46-1.311,2.64-0.45c3.18,2.197,5.662,5.263,7.15,8.829c1.252,2.65,0.406,5.817-2,7.49
	c-2.372,1.699-5.605,1.525-7.78-0.42c-0.76-0.6-1.2-0.33-1.82,0.131c-3.94,2.949-9.1,1.189-10.15-3.521
	c-0.189-0.952-0.13-1.937,0.17-2.86c1.416-4.043,4.14-7.498,7.74-9.82c1-0.689,1.52,0.25,2.22,0.48c0.26,0.08,0.42,0.79,0.41,1.21
	c-0.076,0.479-0.224,0.945-0.44,1.38"/>
<path fill="#B89667" d="M22.69,23.45L21.56,24c0.05,0.4,0.1,0.76,0.15,1.19c0.338,0.021,0.674,0.078,1,0.17
	c0.62,0.24,1.45,0.26,1.42,1.29c-0.03,1.03,0.1,1.72-1.08,2.209c-3.711,1.673-7.842,2.186-11.85,1.471
	c-2.828-0.495-4.954-2.855-5.15-5.72c-0.207-2.766,1.416-5.342,4-6.35c1-0.4,1.27-0.83,1-1.94c-0.393-2.666,0.954-5.287,3.35-6.52
	c2.338-1.324,5.274-0.915,7.16,1c2.771,2.911,4.524,6.64,5,10.63c0,0.21,0,0.42,0.07,0.63c0.312,1.268-0.441,2.553-1.7,2.9
	c-0.28,0.042-0.564-0.03-0.79-0.2c-0.46-0.35-0.87-0.77-1.42-1.28"/>
<path fill="#B89667" d="M34.75,25.23c0.07-0.09,0.12-0.11,0.13-0.15c0-0.35,0.091-0.71,0.14-1.1l-1.25-0.47
	c-0.094,0.187-0.219,0.355-0.369,0.5c-0.561,0.32-1.41,1-1.65,0.84c-0.73-0.5-1.93-0.63-1.77-2.09
	c0.355-3.953,1.904-7.706,4.439-10.76c1.74-2.173,4.746-2.865,7.26-1.67c2.61,1.2,3.891,3.65,3.44,6.79
	c-0.101,0.73,0,1.07,0.739,1.34c2.85,0.808,4.65,3.613,4.201,6.54c-0.372,2.787-2.612,4.953-5.41,5.23
	c-3.768,0.504-7.602-0.04-11.08-1.57c-0.854-0.269-1.328-1.178-1.06-2.032c0.017-0.054,0.036-0.106,0.06-0.159
	c0.15-0.47,0.92-0.79,1.449-1.11c0.243-0.092,0.501-0.136,0.76-0.13"/>
<path fill="#B89667" d="M29,24h-1.15c-0.29-5.89-1.15-12-6.55-14.94l7.07-3.41l7.08,3.48C31.4,13.1,28.29,15.6,29,24"/>
<path fill="#B89667" d="M15.64,43.391c-2.08-1.33-4.14-2.641-6.18-4C9.193,39.168,9.027,38.847,9,38.5
	c-0.15-2.439-0.24-4.88-0.35-7.33c6.76,3.28,10.81,0.91,16-1.8c0.51,0.47,0.78,0.84,0,1.399c-5.19,3.74-8.28,5.261-9,12.621"/>
<path fill="#B89667" d="M48.359,31.24C48.221,33.6,48,36,48,38.32c0.061,0.545-0.244,1.066-0.75,1.279c-2,1.17-4,2.5-5.92,3.74
	c-1.45-5.46-4.26-10.09-9.68-13l0.6-0.93c7.2,4,12.76,3.42,16.16,1.8"/>
<path fill="#B89667" d="M28.52,25c1.611,0.074,2.885,1.388,2.91,3c0,1.656-1.344,3-3.001,2.998c-1.657,0-3-1.344-2.999-3.001
	c0-1.657,1.344-2.999,3.001-2.999C28.461,24.999,28.49,24.999,28.52,25"/>
</svg>
