<svg xmlns="http://www.w3.org/2000/svg" width="208" height="250" viewBox="0 0 208 250">
  <title>main-logoArtboard 1</title>
  <path d="M101.1,185.74c47.63.51,95.15-37.54,94-84.61-1-43.35-43-89.38-92.73-89.13C53.89,12.25,9,57.25,9.66,103.92c.64,45.5,44.84,82.47,91.44,81.82m106-85.07c.13,55.27-48,103.64-111,99.79C46.89,197.46-1.09,156.74,0,97.81,1.06,42.63,48.7-1,106.75.09c55.3,1,101.36,47.18,100.39,100.58" style="fill: #fff"/>
  <path d="M99.4,125.56c1.27.94,2.56,1.91,3.82,2.83l3.76-2.76c-.46-1-1.28-2-1.33-3-.1-2-.37-5.58.47-5.91,2.92-1.12,5.28-4.75,9.56-1.63,11.6,8.47,20.62,18.77,25.93,32,4.24,10.52,1.38,20.84-7.27,27.15-8.34,6.1-19.06,5.66-28.18-1.52-2.75-2.18-4.36-1.19-6.58.48-14.31,10.68-33,4.28-36.79-12.78a20.55,20.55,0,0,1,.6-10.35c4.94-15.09,15-26.45,28.07-35.58,3.58-2.51,5.49.91,8,1.73.93.3,1.51,2.88,1.48,4.39,0,1.66-1,3.28-1.57,5" style="fill: #fff"/>
  <path d="M82.1,84,78,85.86c.19,1.46.35,2.78.56,4.34a16.3,16.3,0,0,1,3.49.59c2.25.9,5.28,1,5.17,4.68-.11,3.3.35,6.24-3.93,8-13.85,5.81-28,8.18-42.83,5.41-10.48-2-17.57-10.1-18.64-20.76-1-9.48,5-19.31,14.56-23,3.78-1.46,4.6-3,3.76-7C38.24,49.07,43.61,39,52.06,34.48,60.71,29.84,71.16,31,78,38c10.39,10.66,15.9,23.83,18,38.53.11.76.12,1.53.23,2.28C97,84,94.77,88,90.09,89.33a3.76,3.76,0,0,1-2.84-.74C85.58,87.34,84.11,85.8,82.1,84" style="fill: #fff"/>
  <path d="M125.79,90.39c.27-.3.44-.39.46-.51.18-1.28.33-2.57.51-4l-4.51-1.7c-.49.67-.79,1.46-1.35,1.8-2,1.19-5.11,3.66-6,3-2.63-1.79-7-2.28-6.39-7.55,1.68-14.55,6.53-27.72,16.09-39,6.94-8.15,17-10.29,26.3-6S165,49.69,163.38,61.05c-.37,2.64,0,3.88,2.68,4.86,11,4,16.31,12.34,15.22,23.65-.9,9.47-8.95,17.64-19.63,19a75.34,75.34,0,0,1-40.11-5.68c-4.16-1.83-4.77-4.78-3.76-7.95.54-1.72,3.33-2.85,5.25-4a7.5,7.5,0,0,1,2.76-.5" style="fill: #fff"/>
  <path d="M105,86h-4.15c-1-21.33-4.16-43.39-23.75-54.14l25.61-12.35,25.67,12.6C113.67,46.44,102.4,55.5,105,86" style="fill: #fff"/>
  <path d="M56.57,156.22c-7.54-4.84-15-9.57-22.39-14.48a4.69,4.69,0,0,1-1.73-3.26c-.52-8.83-.85-17.69-1.24-26.54,24.46,11.86,39.15,3.28,58.07-6.54,1.84,1.72,2.8,3,0,5.08-18.79,13.54-30,19.07-32.69,45.74" style="fill: #fff"/>
  <path d="M175.12,112.2c-.53,8.54-1.19,17.08-1.5,25.63-.09,2.3-.44,3.36-2.7,4.65-7.39,4.23-14.44,9.06-21.46,13.55-5.26-19.79-15.43-36.55-35.07-47l2.17-3.39c26.1,14.55,46.23,12.39,58.56,6.55" style="fill: #fff"/>
  <path d="M103.21,89.38a11.09,11.09,0,0,1,10.55,10.89,10.89,10.89,0,1,1-10.55-10.89" style="fill: #fff"/>
  <path d="M133.46,249.49h4.72V214h-4.72Zm-10.18-29.68c.41,5.82.91,12.11,1.52,18h-3c.41-5.92,1.07-12.1,1.52-18m3-5.78h-6l-4.4,35.46h4.76l.66-7.29h4l.66,7.29h4.76Zm-20.67,0h-4.71v35.46h4.71l-.1-16.16L110,249.49h5.12l-5.83-17.88L114.82,214h-5.16l-4.16,15.81Zm-14.89,5.78c.41,5.82.91,12.11,1.52,18h-3c.41-5.92,1.07-12.1,1.52-18m3-5.78h-6l-4.4,35.46h4.76l.66-7.29h4l.66,7.29h4.76ZM76.58,243.67c0,1.21-.41,2.13-1.83,2.13s-1.82-.92-1.82-2.13v-4.81H68.22v4.86c0,3.65,1.57,6.28,6.53,6.28s6.54-2.63,6.54-6.28v-4.11c0-12.15-8.36-8.4-8.36-16.81v-2.94c0-1.22.46-2.08,1.82-2.08s1.83.86,1.83,2.08v4.3h4.71v-4.3c0-3.65-1.57-6.33-6.54-6.33s-6.53,2.68-6.53,6.33V223c0,10.69,8.36,7,8.36,16.77Z" style="fill: #fff"/>
</svg>
